0
SECTION
2
HEADER
9
$ACADVER
1
AC1009
9
$INSBASE
10
0.000
20
0.000
30
0.000
9
$EXTMIN
10
7513938.660
20
4691208.600
9
$EXTMAX
10
7513938.660
20
4691208.600
0
ENDSEC
0
SECTION
2
TABLES
0
TABLE
2
LTYPE
70
1
0
LTYPE
2
continuous
70
64
3
Solid line
72
65
73
0
40
0.000
0
ENDTAB
0
TABLE
2
LAYER
70
1
0
LAYER
2
Parcela
70
64
62
7
6
continuous
0
ENDTAB
0
TABLE
2
STYLE
70
1
0
STYLE
2
ANNOTATIVE
70
0
40
0
41
40
50
50
71
0
42
1
3
ARIAL.TTF
4

0
ENDTAB
0
TABLE
2
VIEW
70
0
0
ENDTAB
0
ENDSEC
0
SECTION
2
BLOCKS
0
ENDSEC
0
SECTION
2
ENTITIES
0
POLYLINE
66
1
8
Parcela Baze
70
0
10
7513115.621
20
4693142.264
0
VERTEX
8
Parcela Baze
10
7513115.621
20
4693142.264
0
VERTEX
8
Parcela Baze
10
7513103.782
20
4693158.554
0
VERTEX
8
Parcela Baze
10
7513087.983
20
4693179.514
0
VERTEX
8
Parcela Baze
10
7513067.794
20
4693207.993
0
VERTEX
8
Parcela Baze
10
7513059.234
20
4693220.483
0
VERTEX
8
Parcela Baze
10
7513036.710
20
4693252.634
0
VERTEX
8
Parcela Baze
10
7513033.615
20
4693257.052
0
VERTEX
8
Parcela Baze
10
7513013.816
20
4693284.132
0
VERTEX
8
Parcela Baze
10
7513026.484
20
4693293.242
0
VERTEX
8
Parcela Baze
10
7513053.465
20
4693254.652
0
VERTEX
8
Parcela Baze
10
7513061.486
20
4693244.149
0
VERTEX
8
Parcela Baze
10
7513080.994
20
4693218.602
0
VERTEX
8
Parcela Baze
10
7513101.119
20
4693189.510
0
VERTEX
8
Parcela Baze
10
7513090.040
20
4693181.400
0
VERTEX
8
Parcela Baze
10
7513100.350
20
4693166.680
0
VERTEX
8
Parcela Baze
10
7513112.190
20
4693174.330
0
VERTEX
8
Parcela Baze
10
7513136.661
20
4693141.123
0
VERTEX
8
Parcela Baze
10
7513141.674
20
4693134.074
0
VERTEX
8
Parcela Baze
10
7513150.397
20
4693121.810
0
VERTEX
8
Parcela Baze
10
7513150.929
20
4693121.061
0
VERTEX
8
Parcela Baze
10
7513159.601
20
4693109.585
0
VERTEX
8
Parcela Baze
10
7513167.910
20
4693098.591
0
VERTEX
8
Parcela Baze
10
7513175.812
20
4693088.135
0
VERTEX
8
Parcela Baze
10
7513165.039
20
4693079.840
0
VERTEX
8
Parcela Baze
10
7513145.740
20
4693104.794
0
VERTEX
8
Parcela Baze
10
7513129.551
20
4693126.304
0
VERTEX
8
Parcela Baze
10
7513117.251
20
4693143.344
0
VERTEX
8
Parcela Baze
10
7513115.621
20
4693142.264
0
SEQEND
0
TEXT
8
Nr Parceles Baze
10
7513092.604
20
4693188.486
40
0.800000
1
363-13
0
TEXT
8
Nr e Pikave Gjeodezike te Parceles Baze
10
7513115.621
20
4693142.264
40
0.800000
1
150058
0
POINT
8
Pikat
10
7513115.621
20
4693142.264
0
TEXT
8
Nr e Pikave Gjeodezike te Parceles Baze
10
7513117.251
20
4693143.344
40
0.800000
1
150059
0
POINT
8
Pikat
10
7513117.251
20
4693143.344
0
TEXT
8
Nr e Pikave Gjeodezike te Parceles Baze
10
7513129.551
20
4693126.304
40
0.800000
1
150060
0
POINT
8
Pikat
10
7513129.551
20
4693126.304
0
TEXT
8
Nr e Pikave Gjeodezike te Parceles Baze
10
7513145.740
20
4693104.794
40
0.800000
1
150061
0
POINT
8
Pikat
10
7513145.740
20
4693104.794
0
TEXT
8
Nr e Pikave Gjeodezike te Parceles Baze
10
7513165.039
20
4693079.840
40
0.800000
1
150062
0
POINT
8
Pikat
10
7513165.039
20
4693079.840
0
TEXT
8
Nr e Pikave Gjeodezike te Parceles Baze
10
7513026.484
20
4693293.242
40
0.800000
1
152492
0
POINT
8
Pikat
10
7513026.484
20
4693293.242
0
TEXT
8
Nr e Pikave Gjeodezike te Parceles Baze
10
7513013.816
20
4693284.132
40
0.800000
1
152493
0
POINT
8
Pikat
10
7513013.816
20
4693284.132
0
TEXT
8
Nr e Pikave Gjeodezike te Parceles Baze
10
7513036.710
20
4693252.634
40
0.800000
1
152569
0
POINT
8
Pikat
10
7513036.710
20
4693252.634
0
TEXT
8
Nr e Pikave Gjeodezike te Parceles Baze
10
7513059.234
20
4693220.483
40
0.800000
1
152570
0
POINT
8
Pikat
10
7513059.234
20
4693220.483
0
TEXT
8
Nr e Pikave Gjeodezike te Parceles Baze
10
7513067.794
20
4693207.993
40
0.800000
1
152571
0
POINT
8
Pikat
10
7513067.794
20
4693207.993
0
TEXT
8
Nr e Pikave Gjeodezike te Parceles Baze
10
7513087.983
20
4693179.514
40
0.800000
1
152572
0
POINT
8
Pikat
10
7513087.983
20
4693179.514
0
TEXT
8
Nr e Pikave Gjeodezike te Parceles Baze
10
7513103.782
20
4693158.554
40
0.800000
1
152573
0
POINT
8
Pikat
10
7513103.782
20
4693158.554
0
TEXT
8
Nr e Pikave Gjeodezike te Parceles Baze
10
7513033.615
20
4693257.052
40
0.800000
1
152670
0
POINT
8
Pikat
10
7513033.615
20
4693257.052
0
TEXT
8
Nr e Pikave Gjeodezike te Parceles Baze
10
7513053.465
20
4693254.652
40
0.800000
1
152671
0
POINT
8
Pikat
10
7513053.465
20
4693254.652
0
TEXT
8
Nr e Pikave Gjeodezike te Parceles Baze
10
7513061.486
20
4693244.149
40
0.800000
1
152672
0
POINT
8
Pikat
10
7513061.486
20
4693244.149
0
TEXT
8
Nr e Pikave Gjeodezike te Parceles Baze
10
7513080.994
20
4693218.602
40
0.800000
1
152673
0
POINT
8
Pikat
10
7513080.994
20
4693218.602
0
TEXT
8
Nr e Pikave Gjeodezike te Parceles Baze
10
7513101.119
20
4693189.510
40
0.800000
1
152674
0
POINT
8
Pikat
10
7513101.119
20
4693189.510
0
TEXT
8
Nr e Pikave Gjeodezike te Parceles Baze
10
7513090.040
20
4693181.400
40
0.800000
1
152675
0
POINT
8
Pikat
10
7513090.040
20
4693181.400
0
TEXT
8
Nr e Pikave Gjeodezike te Parceles Baze
10
7513100.350
20
4693166.680
40
0.800000
1
152676
0
POINT
8
Pikat
10
7513100.350
20
4693166.680
0
TEXT
8
Nr e Pikave Gjeodezike te Parceles Baze
10
7513112.190
20
4693174.330
40
0.800000
1
152677
0
POINT
8
Pikat
10
7513112.190
20
4693174.330
0
TEXT
8
Nr e Pikave Gjeodezike te Parceles Baze
10
7513136.661
20
4693141.123
40
0.800000
1
152678
0
POINT
8
Pikat
10
7513136.661
20
4693141.123
0
TEXT
8
Nr e Pikave Gjeodezike te Parceles Baze
10
7513150.929
20
4693121.061
40
0.800000
1
152679
0
POINT
8
Pikat
10
7513150.929
20
4693121.061
0
TEXT
8
Nr e Pikave Gjeodezike te Parceles Baze
10
7513175.812
20
4693088.135
40
0.800000
1
152680
0
POINT
8
Pikat
10
7513175.812
20
4693088.135
0
TEXT
8
Nr e Pikave Gjeodezike te Parceles Baze
10
7513141.674
20
4693134.074
40
0.800000
1
186025
0
POINT
8
Pikat
10
7513141.674
20
4693134.074
0
TEXT
8
Nr e Pikave Gjeodezike te Parceles Baze
10
7513150.397
20
4693121.810
40
0.800000
1
186026
0
POINT
8
Pikat
10
7513150.397
20
4693121.810
0
TEXT
8
Nr e Pikave Gjeodezike te Parceles Baze
10
7513159.601
20
4693109.585
40
0.800000
1
186029
0
POINT
8
Pikat
10
7513159.601
20
4693109.585
0
TEXT
8
Nr e Pikave Gjeodezike te Parceles Baze
10
7513167.910
20
4693098.591
40
0.800000
1
186030
0
POINT
8
Pikat
10
7513167.910
20
4693098.591
0
ENDSEC
0
EOF
